<svg xmlns="http://www.w3.org/2000/svg" width="1024" height="1024" viewBox="0 0 512 512"><defs>
<linearGradient id="bg" x1="0" y1="0" x2="1" y2="1"><stop offset="0" stop-color="#0E6E6E"/><stop offset="1" stop-color="#083E3E"/></linearGradient>
<radialGradient id="globe" cx="0.38" cy="0.34" r="0.85"><stop offset="0" stop-color="#1CAE93"/><stop offset="1" stop-color="#12866F"/></radialGradient>
<linearGradient id="ring" x1="0" y1="0" x2="1" y2="1"><stop offset="0" stop-color="#ECB84A"/><stop offset="1" stop-color="#D69A2C"/></linearGradient>
<clipPath id="gclip"><circle cx="0" cy="0" r="120"/></clipPath></defs>
<rect width="512" height="512" rx="115" fill="url(#bg)"/>
<g transform="translate(256 258) scale(1.0)">
  <g transform="rotate(-22)"><ellipse cx="0" cy="0" rx="196" ry="70" fill="none" stroke="url(#ring)" stroke-width="15"/></g>
  <circle cx="0" cy="0" r="120" fill="url(#globe)"/>
  <g clip-path="url(#gclip)" stroke="#EAF7F2" stroke-width="4.5" fill="none" opacity="0.85">
    <ellipse cx="0" cy="0" rx="46" ry="120"/><ellipse cx="0" cy="0" rx="120" ry="36"/>
    <ellipse cx="0" cy="-52" rx="104" ry="30"/><ellipse cx="0" cy="52" rx="104" ry="30"/>
  </g>
  <circle cx="0" cy="0" r="120" fill="none" stroke="#EAF7F2" stroke-width="4" opacity="0.5"/>
  <g transform="rotate(-22)">
    <path d="M -186 22 A 196 70 0 0 0 186 22" fill="none" stroke="url(#ring)" stroke-width="15" stroke-linecap="round"/>
    <circle cx="150" cy="46" r="27" fill="url(#ring)" stroke="#083E3E" stroke-width="3"/>
    <circle cx="150" cy="46" r="19" fill="none" stroke="#FBF7EF" stroke-width="2.5" opacity="0.8"/>
    <g transform="translate(150 46) rotate(22)"><text x="0" y="12" font-family="DejaVu Sans, Arial, sans-serif" font-size="34" font-weight="bold" fill="#083E3E" text-anchor="middle">$</text></g>
  </g>
</g></svg>